<mxfile host="65bd71144e" pages="6">
    <diagram name="STEP 1" id="58cdce13-f638-feb5-8d6f-7d28b1aa9fa0">
        <mxGraphModel dx="1202" dy="873" grid="1" gridSize="10" guides="1" tooltips="1" connect="1" arrows="1" fold="1" page="1" pageScale="1" pageWidth="1100" pageHeight="850" background="none" math="0" shadow="0">
            <root>
                <mxCell id="0"/>
                <mxCell id="1" parent="0"/>
                <mxCell id="382b91b5511bd0f7-1" value="" style="ellipse;html=1;shape=startState;fillColor=#000000;strokeColor=#ff0000;rounded=1;shadow=0;comic=0;labelBackgroundColor=none;fontFamily=Verdana;fontSize=12;fontColor=#000000;align=center;direction=south;" parent="1" vertex="1">
                    <mxGeometry x="130" y="210" width="30" height="30" as="geometry"/>
                </mxCell>
                <mxCell id="382b91b5511bd0f7-6" value="Registered" style="rounded=1;whiteSpace=wrap;html=1;arcSize=24;fillColor=#ffffc0;strokeColor=#ff0000;shadow=0;comic=0;labelBackgroundColor=none;fontFamily=Verdana;fontSize=12;fontColor=#000000;align=center;" parent="1" vertex="1">
                    <mxGeometry x="240" y="200" width="120" height="60" as="geometry"/>
                </mxCell>
                <mxCell id="3cde6dad864a17aa-3" style="edgeStyle=orthogonalEdgeStyle;html=1;exitX=1;exitY=0.25;entryX=0.25;entryY=0;labelBackgroundColor=none;endArrow=open;endSize=8;strokeColor=#ff0000;fontFamily=Verdana;fontSize=12;align=left;" parent="1" source="382b91b5511bd0f7-7" target="382b91b5511bd0f7-9" edge="1">
                    <mxGeometry relative="1" as="geometry"/>
                </mxCell>
                <mxCell id="382b91b5511bd0f7-7" value="Verified" style="rounded=1;whiteSpace=wrap;html=1;arcSize=24;fillColor=#ffffc0;strokeColor=#ff0000;shadow=0;comic=0;labelBackgroundColor=none;fontFamily=Verdana;fontSize=12;fontColor=#000000;align=center;" parent="1" vertex="1">
                    <mxGeometry x="440" y="200" width="120" height="60" as="geometry"/>
                </mxCell>
                <mxCell id="382b91b5511bd0f7-9" value="Archived" style="rounded=1;whiteSpace=wrap;html=1;arcSize=24;fillColor=#ffffc0;strokeColor=#ff0000;shadow=0;comic=0;labelBackgroundColor=none;fontFamily=Verdana;fontSize=12;fontColor=#000000;align=center;" parent="1" vertex="1">
                    <mxGeometry x="700" y="280" width="120" height="60" as="geometry"/>
                </mxCell>
                <mxCell id="382b91b5511bd0f7-10" value="Locking" style="rounded=1;whiteSpace=wrap;html=1;arcSize=24;fillColor=#ffffc0;strokeColor=#ff0000;shadow=0;comic=0;labelBackgroundColor=none;fontFamily=Verdana;fontSize=12;fontColor=#000000;align=center;" parent="1" vertex="1">
                    <mxGeometry x="440" y="340" width="120" height="60" as="geometry"/>
                </mxCell>
                <mxCell id="3cde6dad864a17aa-5" style="edgeStyle=elbowEdgeStyle;html=1;labelBackgroundColor=none;endArrow=open;endSize=8;strokeColor=#ff0000;fontFamily=Verdana;fontSize=12;align=left;entryX=0.5;entryY=0;entryDx=0;entryDy=0;exitX=0.5;exitY=1;exitDx=0;exitDy=0;" parent="1" source="382b91b5511bd0f7-9" target="1Tw5r4APDXNCRhc0Rgy8-1" edge="1">
                    <mxGeometry relative="1" as="geometry">
                        <mxPoint x="860" y="490" as="sourcePoint"/>
                        <mxPoint x="830" y="630" as="targetPoint"/>
                        <Array as="points">
                            <mxPoint x="760" y="380"/>
                        </Array>
                    </mxGeometry>
                </mxCell>
                <mxCell id="2a3bc250acf0617d-9" style="edgeStyle=orthogonalEdgeStyle;html=1;labelBackgroundColor=none;endArrow=open;endSize=8;strokeColor=#ff0000;fontFamily=Verdana;fontSize=12;align=left;" parent="1" source="382b91b5511bd0f7-1" edge="1">
                    <mxGeometry relative="1" as="geometry">
                        <mxPoint x="240" y="225" as="targetPoint"/>
                    </mxGeometry>
                </mxCell>
                <mxCell id="2a3bc250acf0617d-10" style="edgeStyle=orthogonalEdgeStyle;html=1;labelBackgroundColor=none;endArrow=open;endSize=8;strokeColor=#ff0000;fontFamily=Verdana;fontSize=12;align=left;entryX=0;entryY=0.5;" parent="1" source="382b91b5511bd0f7-6" target="382b91b5511bd0f7-7" edge="1">
                    <mxGeometry relative="1" as="geometry"/>
                </mxCell>
                <mxCell id="2a3bc250acf0617d-14" style="edgeStyle=orthogonalEdgeStyle;html=1;entryX=1;entryY=0.75;labelBackgroundColor=none;endArrow=open;endSize=8;strokeColor=#ff0000;fontFamily=Verdana;fontSize=12;align=left;exitX=1;exitY=0.5;exitDx=0;exitDy=0;" parent="1" source="382b91b5511bd0f7-10" target="382b91b5511bd0f7-7" edge="1">
                    <mxGeometry relative="1" as="geometry">
                        <mxPoint x="570" y="460" as="sourcePoint"/>
                        <Array as="points">
                            <mxPoint x="590" y="370"/>
                            <mxPoint x="590" y="245"/>
                        </Array>
                    </mxGeometry>
                </mxCell>
                <mxCell id="1Tw5r4APDXNCRhc0Rgy8-1" value="" style="ellipse;html=1;shape=endState;fillColor=#000000;strokeColor=#ff0000;" parent="1" vertex="1">
                    <mxGeometry x="745" y="425" width="30" height="30" as="geometry"/>
                </mxCell>
                <mxCell id="1Tw5r4APDXNCRhc0Rgy8-6" style="edgeStyle=orthogonalEdgeStyle;html=1;labelBackgroundColor=none;endArrow=open;endSize=8;strokeColor=#ff0000;fontFamily=Verdana;fontSize=12;align=left;entryX=0.5;entryY=0;exitX=0.5;exitY=1;exitDx=0;exitDy=0;entryDx=0;entryDy=0;" parent="1" source="382b91b5511bd0f7-7" target="382b91b5511bd0f7-10" edge="1">
                    <mxGeometry relative="1" as="geometry">
                        <mxPoint x="460" y="300" as="sourcePoint"/>
                        <mxPoint x="540" y="380" as="targetPoint"/>
                    </mxGeometry>
                </mxCell>
                <mxCell id="2" value="" style="whiteSpace=wrap;html=1;" vertex="1" parent="1">
                    <mxGeometry x="490" y="420" width="120" height="60" as="geometry"/>
                </mxCell>
            </root>
        </mxGraphModel>
    </diagram>
    <diagram name="STEP 2" id="QKfu1V7X87MnSLor5ncl">
        <mxGraphModel dx="1202" dy="873" grid="1" gridSize="10" guides="1" tooltips="1" connect="1" arrows="1" fold="1" page="1" pageScale="1" pageWidth="1100" pageHeight="850" background="none" math="0" shadow="0">
            <root>
                <mxCell id="EJxR_ySyoxJ4q-DhHBnc-0"/>
                <mxCell id="EJxR_ySyoxJ4q-DhHBnc-1" parent="EJxR_ySyoxJ4q-DhHBnc-0"/>
                <mxCell id="EJxR_ySyoxJ4q-DhHBnc-2" value="" style="ellipse;html=1;shape=startState;fillColor=#000000;strokeColor=#ff0000;rounded=1;shadow=0;comic=0;labelBackgroundColor=none;fontFamily=Verdana;fontSize=12;fontColor=#000000;align=center;direction=south;" parent="EJxR_ySyoxJ4q-DhHBnc-1" vertex="1">
                    <mxGeometry x="180" y="215" width="30" height="30" as="geometry"/>
                </mxCell>
                <mxCell id="EJxR_ySyoxJ4q-DhHBnc-3" value="Registered" style="rounded=1;whiteSpace=wrap;html=1;arcSize=24;fillColor=#ffffc0;strokeColor=#ff0000;shadow=0;comic=0;labelBackgroundColor=none;fontFamily=Verdana;fontSize=12;fontColor=#000000;align=center;" parent="EJxR_ySyoxJ4q-DhHBnc-1" vertex="1">
                    <mxGeometry x="260" y="110" width="120" height="60" as="geometry"/>
                </mxCell>
                <mxCell id="EJxR_ySyoxJ4q-DhHBnc-4" value="撤銷帳號&lt;br&gt;." style="edgeStyle=orthogonalEdgeStyle;html=1;exitX=1;exitY=0.25;entryX=0.25;entryY=0;labelBackgroundColor=none;endArrow=open;endSize=8;strokeColor=#ff0000;fontFamily=Verdana;fontSize=12;align=left;" parent="EJxR_ySyoxJ4q-DhHBnc-1" source="EJxR_ySyoxJ4q-DhHBnc-5" target="EJxR_ySyoxJ4q-DhHBnc-6" edge="1">
                    <mxGeometry relative="1" as="geometry"/>
                </mxCell>
                <mxCell id="EJxR_ySyoxJ4q-DhHBnc-5" value="Verified" style="rounded=1;whiteSpace=wrap;html=1;arcSize=24;fillColor=#ffffc0;strokeColor=#ff0000;shadow=0;comic=0;labelBackgroundColor=none;fontFamily=Verdana;fontSize=12;fontColor=#000000;align=center;" parent="EJxR_ySyoxJ4q-DhHBnc-1" vertex="1">
                    <mxGeometry x="440" y="200" width="120" height="60" as="geometry"/>
                </mxCell>
                <mxCell id="EJxR_ySyoxJ4q-DhHBnc-6" value="Archived" style="rounded=1;whiteSpace=wrap;html=1;arcSize=24;fillColor=#ffffc0;strokeColor=#ff0000;shadow=0;comic=0;labelBackgroundColor=none;fontFamily=Verdana;fontSize=12;fontColor=#000000;align=center;" parent="EJxR_ySyoxJ4q-DhHBnc-1" vertex="1">
                    <mxGeometry x="700" y="280" width="120" height="60" as="geometry"/>
                </mxCell>
                <mxCell id="EJxR_ySyoxJ4q-DhHBnc-7" value="Locking" style="rounded=1;whiteSpace=wrap;html=1;arcSize=24;fillColor=#ffffc0;strokeColor=#ff0000;shadow=0;comic=0;labelBackgroundColor=none;fontFamily=Verdana;fontSize=12;fontColor=#000000;align=center;" parent="EJxR_ySyoxJ4q-DhHBnc-1" vertex="1">
                    <mxGeometry x="440" y="340" width="120" height="60" as="geometry"/>
                </mxCell>
                <mxCell id="EJxR_ySyoxJ4q-DhHBnc-8" style="edgeStyle=elbowEdgeStyle;html=1;labelBackgroundColor=none;endArrow=open;endSize=8;strokeColor=#ff0000;fontFamily=Verdana;fontSize=12;align=left;entryX=0.5;entryY=0;entryDx=0;entryDy=0;exitX=0.5;exitY=1;exitDx=0;exitDy=0;" parent="EJxR_ySyoxJ4q-DhHBnc-1" source="EJxR_ySyoxJ4q-DhHBnc-6" target="EJxR_ySyoxJ4q-DhHBnc-12" edge="1">
                    <mxGeometry relative="1" as="geometry">
                        <mxPoint x="860" y="490" as="sourcePoint"/>
                        <mxPoint x="830" y="630" as="targetPoint"/>
                        <Array as="points">
                            <mxPoint x="760" y="380"/>
                        </Array>
                    </mxGeometry>
                </mxCell>
                <mxCell id="EJxR_ySyoxJ4q-DhHBnc-9" value="申請帳號" style="edgeStyle=orthogonalEdgeStyle;html=1;labelBackgroundColor=none;endArrow=open;endSize=8;strokeColor=#ff0000;fontFamily=Verdana;fontSize=12;align=left;entryX=0;entryY=0.5;entryDx=0;entryDy=0;" parent="EJxR_ySyoxJ4q-DhHBnc-1" source="EJxR_ySyoxJ4q-DhHBnc-2" target="EJxR_ySyoxJ4q-DhHBnc-3" edge="1">
                    <mxGeometry relative="1" as="geometry">
                        <mxPoint x="240" y="225" as="targetPoint"/>
                    </mxGeometry>
                </mxCell>
                <mxCell id="EJxR_ySyoxJ4q-DhHBnc-10" value="進行EMAIL驗證&lt;br&gt;" style="edgeStyle=orthogonalEdgeStyle;html=1;labelBackgroundColor=none;endArrow=open;endSize=8;strokeColor=#ff0000;fontFamily=Verdana;fontSize=12;align=left;entryX=0;entryY=0.5;" parent="EJxR_ySyoxJ4q-DhHBnc-1" source="EJxR_ySyoxJ4q-DhHBnc-3" target="EJxR_ySyoxJ4q-DhHBnc-5" edge="1">
                    <mxGeometry relative="1" as="geometry"/>
                </mxCell>
                <mxCell id="EJxR_ySyoxJ4q-DhHBnc-11" value="忘記密碼&lt;br&gt;(重設)" style="edgeStyle=orthogonalEdgeStyle;html=1;entryX=1;entryY=0.75;labelBackgroundColor=none;endArrow=open;endSize=8;strokeColor=#ff0000;fontFamily=Verdana;fontSize=12;align=left;exitX=1;exitY=0.5;exitDx=0;exitDy=0;" parent="EJxR_ySyoxJ4q-DhHBnc-1" source="EJxR_ySyoxJ4q-DhHBnc-7" target="EJxR_ySyoxJ4q-DhHBnc-5" edge="1">
                    <mxGeometry relative="1" as="geometry">
                        <mxPoint x="570" y="460" as="sourcePoint"/>
                        <Array as="points">
                            <mxPoint x="620" y="370"/>
                            <mxPoint x="620" y="245"/>
                        </Array>
                    </mxGeometry>
                </mxCell>
                <mxCell id="EJxR_ySyoxJ4q-DhHBnc-12" value="" style="ellipse;html=1;shape=endState;fillColor=#000000;strokeColor=#ff0000;" parent="EJxR_ySyoxJ4q-DhHBnc-1" vertex="1">
                    <mxGeometry x="745" y="425" width="30" height="30" as="geometry"/>
                </mxCell>
                <mxCell id="EJxR_ySyoxJ4q-DhHBnc-13" value="輸入密碼錯誤(三次)" style="edgeStyle=orthogonalEdgeStyle;html=1;labelBackgroundColor=none;endArrow=open;endSize=8;strokeColor=#ff0000;fontFamily=Verdana;fontSize=12;align=left;entryX=0.5;entryY=0;exitX=0.5;exitY=1;exitDx=0;exitDy=0;entryDx=0;entryDy=0;" parent="EJxR_ySyoxJ4q-DhHBnc-1" source="EJxR_ySyoxJ4q-DhHBnc-5" target="EJxR_ySyoxJ4q-DhHBnc-7" edge="1">
                    <mxGeometry relative="1" as="geometry">
                        <mxPoint x="460" y="300" as="sourcePoint"/>
                        <mxPoint x="540" y="380" as="targetPoint"/>
                    </mxGeometry>
                </mxCell>
            </root>
        </mxGraphModel>
    </diagram>
    <diagram name="STEP 3" id="xMmD3lQz6aDLC7gqg4V_">
        <mxGraphModel dx="1202" dy="873" grid="1" gridSize="10" guides="1" tooltips="1" connect="1" arrows="1" fold="1" page="1" pageScale="1" pageWidth="1100" pageHeight="850" background="none" math="0" shadow="0">
            <root>
                <mxCell id="XWTrqI8TIxMDbQP2rO37-0"/>
                <mxCell id="XWTrqI8TIxMDbQP2rO37-1" parent="XWTrqI8TIxMDbQP2rO37-0"/>
                <mxCell id="XWTrqI8TIxMDbQP2rO37-2" value="" style="ellipse;html=1;shape=startState;fillColor=#000000;strokeColor=#ff0000;rounded=1;shadow=0;comic=0;labelBackgroundColor=none;fontFamily=Verdana;fontSize=12;fontColor=#000000;align=center;direction=south;" parent="XWTrqI8TIxMDbQP2rO37-1" vertex="1">
                    <mxGeometry x="180" y="215" width="30" height="30" as="geometry"/>
                </mxCell>
                <mxCell id="XWTrqI8TIxMDbQP2rO37-3" value="Registered" style="rounded=1;whiteSpace=wrap;html=1;arcSize=24;fillColor=#ffffc0;strokeColor=#ff0000;shadow=0;comic=0;labelBackgroundColor=none;fontFamily=Verdana;fontSize=12;fontColor=#000000;align=center;" parent="XWTrqI8TIxMDbQP2rO37-1" vertex="1">
                    <mxGeometry x="260" y="110" width="120" height="60" as="geometry"/>
                </mxCell>
                <mxCell id="XWTrqI8TIxMDbQP2rO37-4" value="&lt;br&gt;Remove()&lt;br&gt;&lt;br&gt;." style="edgeStyle=orthogonalEdgeStyle;html=1;exitX=1;exitY=0.25;entryX=0.25;entryY=0;labelBackgroundColor=none;endArrow=open;endSize=8;strokeColor=#ff0000;fontFamily=Verdana;fontSize=12;align=left;" parent="XWTrqI8TIxMDbQP2rO37-1" source="XWTrqI8TIxMDbQP2rO37-5" target="XWTrqI8TIxMDbQP2rO37-6" edge="1">
                    <mxGeometry relative="1" as="geometry"/>
                </mxCell>
                <mxCell id="XWTrqI8TIxMDbQP2rO37-5" value="Activated" style="rounded=1;whiteSpace=wrap;html=1;arcSize=24;fillColor=#ffffc0;strokeColor=#ff0000;shadow=0;comic=0;labelBackgroundColor=none;fontFamily=Verdana;fontSize=12;fontColor=#000000;align=center;" parent="XWTrqI8TIxMDbQP2rO37-1" vertex="1">
                    <mxGeometry x="440" y="200" width="120" height="60" as="geometry"/>
                </mxCell>
                <mxCell id="XWTrqI8TIxMDbQP2rO37-6" value="Archived" style="rounded=1;whiteSpace=wrap;html=1;arcSize=24;fillColor=#ffffc0;strokeColor=#ff0000;shadow=0;comic=0;labelBackgroundColor=none;fontFamily=Verdana;fontSize=12;fontColor=#000000;align=center;" parent="XWTrqI8TIxMDbQP2rO37-1" vertex="1">
                    <mxGeometry x="700" y="280" width="120" height="60" as="geometry"/>
                </mxCell>
                <mxCell id="XWTrqI8TIxMDbQP2rO37-7" value="Deactived" style="rounded=1;whiteSpace=wrap;html=1;arcSize=24;fillColor=#ffffc0;strokeColor=#ff0000;shadow=0;comic=0;labelBackgroundColor=none;fontFamily=Verdana;fontSize=12;fontColor=#000000;align=center;" parent="XWTrqI8TIxMDbQP2rO37-1" vertex="1">
                    <mxGeometry x="440" y="340" width="120" height="60" as="geometry"/>
                </mxCell>
                <mxCell id="XWTrqI8TIxMDbQP2rO37-8" style="edgeStyle=elbowEdgeStyle;html=1;labelBackgroundColor=none;endArrow=open;endSize=8;strokeColor=#ff0000;fontFamily=Verdana;fontSize=12;align=left;entryX=0.5;entryY=0;entryDx=0;entryDy=0;exitX=0.5;exitY=1;exitDx=0;exitDy=0;" parent="XWTrqI8TIxMDbQP2rO37-1" source="XWTrqI8TIxMDbQP2rO37-6" target="XWTrqI8TIxMDbQP2rO37-12" edge="1">
                    <mxGeometry relative="1" as="geometry">
                        <mxPoint x="860" y="490" as="sourcePoint"/>
                        <mxPoint x="830" y="630" as="targetPoint"/>
                        <Array as="points">
                            <mxPoint x="760" y="380"/>
                        </Array>
                    </mxGeometry>
                </mxCell>
                <mxCell id="XWTrqI8TIxMDbQP2rO37-9" value="&amp;nbsp; Register()" style="edgeStyle=orthogonalEdgeStyle;html=1;labelBackgroundColor=none;endArrow=open;endSize=8;strokeColor=#ff0000;fontFamily=Verdana;fontSize=12;align=left;entryX=0;entryY=0.5;entryDx=0;entryDy=0;" parent="XWTrqI8TIxMDbQP2rO37-1" source="XWTrqI8TIxMDbQP2rO37-2" target="XWTrqI8TIxMDbQP2rO37-3" edge="1">
                    <mxGeometry relative="1" as="geometry">
                        <mxPoint x="240" y="225" as="targetPoint"/>
                    </mxGeometry>
                </mxCell>
                <mxCell id="XWTrqI8TIxMDbQP2rO37-10" value="&lt;br&gt;&amp;nbsp; EmailValidate()&lt;br&gt;" style="edgeStyle=orthogonalEdgeStyle;html=1;labelBackgroundColor=none;endArrow=open;endSize=8;strokeColor=#ff0000;fontFamily=Verdana;fontSize=12;align=left;entryX=0;entryY=0.5;" parent="XWTrqI8TIxMDbQP2rO37-1" source="XWTrqI8TIxMDbQP2rO37-3" target="XWTrqI8TIxMDbQP2rO37-5" edge="1">
                    <mxGeometry relative="1" as="geometry"/>
                </mxCell>
                <mxCell id="XWTrqI8TIxMDbQP2rO37-11" value="&amp;nbsp;Enable()" style="edgeStyle=orthogonalEdgeStyle;html=1;entryX=1;entryY=0.75;labelBackgroundColor=none;endArrow=open;endSize=8;strokeColor=#ff0000;fontFamily=Verdana;fontSize=12;align=left;exitX=1;exitY=0.5;exitDx=0;exitDy=0;" parent="XWTrqI8TIxMDbQP2rO37-1" source="XWTrqI8TIxMDbQP2rO37-7" target="XWTrqI8TIxMDbQP2rO37-5" edge="1">
                    <mxGeometry relative="1" as="geometry">
                        <mxPoint x="570" y="460" as="sourcePoint"/>
                        <Array as="points">
                            <mxPoint x="620" y="370"/>
                            <mxPoint x="620" y="245"/>
                        </Array>
                    </mxGeometry>
                </mxCell>
                <mxCell id="XWTrqI8TIxMDbQP2rO37-12" value="" style="ellipse;html=1;shape=endState;fillColor=#000000;strokeColor=#ff0000;" parent="XWTrqI8TIxMDbQP2rO37-1" vertex="1">
                    <mxGeometry x="745" y="425" width="30" height="30" as="geometry"/>
                </mxCell>
                <mxCell id="XWTrqI8TIxMDbQP2rO37-13" value="&lt;br&gt;&amp;nbsp;Lock()" style="edgeStyle=orthogonalEdgeStyle;html=1;labelBackgroundColor=none;endArrow=open;endSize=8;strokeColor=#ff0000;fontFamily=Verdana;fontSize=12;align=left;entryX=0.5;entryY=0;exitX=0.5;exitY=1;exitDx=0;exitDy=0;entryDx=0;entryDy=0;" parent="XWTrqI8TIxMDbQP2rO37-1" source="XWTrqI8TIxMDbQP2rO37-5" target="XWTrqI8TIxMDbQP2rO37-7" edge="1">
                    <mxGeometry relative="1" as="geometry">
                        <mxPoint x="460" y="300" as="sourcePoint"/>
                        <mxPoint x="540" y="380" as="targetPoint"/>
                    </mxGeometry>
                </mxCell>
            </root>
        </mxGraphModel>
    </diagram>
    <diagram name="STEP 4" id="PehyNadLh8OAFqgDyJLH">
        <mxGraphModel dx="1202" dy="1723" grid="1" gridSize="10" guides="1" tooltips="1" connect="1" arrows="1" fold="1" page="1" pageScale="1" pageWidth="1100" pageHeight="850" background="none" math="0" shadow="0">
            <root>
                <mxCell id="E8lBxkRK9DMBh62dXM_4-0"/>
                <mxCell id="E8lBxkRK9DMBh62dXM_4-1" parent="E8lBxkRK9DMBh62dXM_4-0"/>
                <mxCell id="E8lBxkRK9DMBh62dXM_4-2" value="&lt;br&gt;&lt;br&gt;&lt;br&gt;(START)" style="ellipse;html=1;shape=startState;fillColor=#000000;strokeColor=#ff0000;rounded=1;shadow=0;comic=0;labelBackgroundColor=none;fontFamily=Verdana;fontSize=12;fontColor=#000000;align=center;direction=south;" parent="E8lBxkRK9DMBh62dXM_4-1" vertex="1">
                    <mxGeometry x="240" y="20" width="30" height="30" as="geometry"/>
                </mxCell>
                <mxCell id="E8lBxkRK9DMBh62dXM_4-3" value="CREATED" style="rounded=1;whiteSpace=wrap;html=1;arcSize=24;fillColor=#ffffc0;strokeColor=#ff0000;shadow=0;comic=0;labelBackgroundColor=none;fontFamily=Verdana;fontSize=12;fontColor=#000000;align=center;" parent="E8lBxkRK9DMBh62dXM_4-1" vertex="1">
                    <mxGeometry x="300" y="110" width="120" height="60" as="geometry"/>
                </mxCell>
                <mxCell id="E8lBxkRK9DMBh62dXM_4-4" value="&lt;br&gt;Remove()&lt;br&gt;[USER,STAFF]&lt;br&gt;." style="edgeStyle=orthogonalEdgeStyle;html=1;exitX=1;exitY=0.5;entryX=0.5;entryY=0;labelBackgroundColor=none;endArrow=open;endSize=8;strokeColor=#ff0000;fontFamily=Verdana;fontSize=12;align=left;entryDx=0;entryDy=0;exitDx=0;exitDy=0;" parent="E8lBxkRK9DMBh62dXM_4-1" source="E8lBxkRK9DMBh62dXM_4-5" target="E8lBxkRK9DMBh62dXM_4-6" edge="1">
                    <mxGeometry relative="1" as="geometry"/>
                </mxCell>
                <mxCell id="E8lBxkRK9DMBh62dXM_4-5" value="ACTIVATED" style="rounded=1;whiteSpace=wrap;html=1;arcSize=24;fillColor=#ffffc0;strokeColor=#ff0000;shadow=0;comic=0;labelBackgroundColor=none;fontFamily=Verdana;fontSize=12;fontColor=#000000;align=center;" parent="E8lBxkRK9DMBh62dXM_4-1" vertex="1">
                    <mxGeometry x="300" y="260" width="120" height="60" as="geometry"/>
                </mxCell>
                <mxCell id="E8lBxkRK9DMBh62dXM_4-6" value="ARCHIVED" style="rounded=1;whiteSpace=wrap;html=1;arcSize=24;fillColor=#ffffc0;strokeColor=#ff0000;shadow=0;comic=0;labelBackgroundColor=none;fontFamily=Verdana;fontSize=12;fontColor=#000000;align=center;" parent="E8lBxkRK9DMBh62dXM_4-1" vertex="1">
                    <mxGeometry x="610" y="340" width="120" height="60" as="geometry"/>
                </mxCell>
                <mxCell id="E8lBxkRK9DMBh62dXM_4-7" value="DEACTIVED" style="rounded=1;whiteSpace=wrap;html=1;arcSize=24;fillColor=#ffffc0;strokeColor=#ff0000;shadow=0;comic=0;labelBackgroundColor=none;fontFamily=Verdana;fontSize=12;fontColor=#000000;align=center;" parent="E8lBxkRK9DMBh62dXM_4-1" vertex="1">
                    <mxGeometry x="300" y="400" width="120" height="60" as="geometry"/>
                </mxCell>
                <mxCell id="E8lBxkRK9DMBh62dXM_4-8" style="edgeStyle=elbowEdgeStyle;html=1;labelBackgroundColor=none;endArrow=open;endSize=8;strokeColor=#ff0000;fontFamily=Verdana;fontSize=12;align=left;entryX=0.5;entryY=0;entryDx=0;entryDy=0;exitX=0.5;exitY=1;exitDx=0;exitDy=0;" parent="E8lBxkRK9DMBh62dXM_4-1" source="E8lBxkRK9DMBh62dXM_4-6" target="E8lBxkRK9DMBh62dXM_4-12" edge="1">
                    <mxGeometry relative="1" as="geometry">
                        <mxPoint x="860" y="490" as="sourcePoint"/>
                        <mxPoint x="830" y="630" as="targetPoint"/>
                        <Array as="points">
                            <mxPoint x="670" y="430"/>
                        </Array>
                    </mxGeometry>
                </mxCell>
                <mxCell id="E8lBxkRK9DMBh62dXM_4-9" value="&lt;br&gt;&lt;br&gt;&lt;br&gt;&lt;br&gt;&amp;nbsp; &amp;nbsp;Register()&lt;br&gt;&amp;nbsp; &amp;nbsp;[USER]&lt;br&gt;&lt;br&gt;&amp;nbsp; &amp;nbsp;Import()&lt;br&gt;&amp;nbsp; &amp;nbsp;[USER]" style="edgeStyle=orthogonalEdgeStyle;html=1;labelBackgroundColor=none;endArrow=open;endSize=8;strokeColor=#ff0000;fontFamily=Verdana;fontSize=12;align=left;entryX=0.5;entryY=0;entryDx=0;entryDy=0;" parent="E8lBxkRK9DMBh62dXM_4-1" source="E8lBxkRK9DMBh62dXM_4-2" target="E8lBxkRK9DMBh62dXM_4-3" edge="1">
                    <mxGeometry relative="1" as="geometry">
                        <mxPoint x="240" y="225" as="targetPoint"/>
                    </mxGeometry>
                </mxCell>
                <mxCell id="E8lBxkRK9DMBh62dXM_4-10" value="&lt;br&gt;&amp;nbsp; Activate()&lt;br&gt;&amp;nbsp; [USER]" style="edgeStyle=orthogonalEdgeStyle;html=1;labelBackgroundColor=none;endArrow=open;endSize=8;strokeColor=#ff0000;fontFamily=Verdana;fontSize=12;align=left;entryX=0.5;entryY=0;exitX=0.5;exitY=1;exitDx=0;exitDy=0;entryDx=0;entryDy=0;" parent="E8lBxkRK9DMBh62dXM_4-1" source="E8lBxkRK9DMBh62dXM_4-3" target="E8lBxkRK9DMBh62dXM_4-5" edge="1">
                    <mxGeometry relative="1" as="geometry"/>
                </mxCell>
                <mxCell id="E8lBxkRK9DMBh62dXM_4-11" value="&amp;nbsp;UnLock()&lt;br&gt;&amp;nbsp;[USER,STAFF]" style="edgeStyle=orthogonalEdgeStyle;html=1;entryX=1;entryY=0.75;labelBackgroundColor=none;endArrow=open;endSize=8;strokeColor=#ff0000;fontFamily=Verdana;fontSize=12;align=left;" parent="E8lBxkRK9DMBh62dXM_4-1" target="E8lBxkRK9DMBh62dXM_4-5" edge="1">
                    <mxGeometry relative="1" as="geometry">
                        <mxPoint x="420" y="430" as="sourcePoint"/>
                        <Array as="points">
                            <mxPoint x="490" y="430"/>
                            <mxPoint x="490" y="305"/>
                        </Array>
                    </mxGeometry>
                </mxCell>
                <mxCell id="E8lBxkRK9DMBh62dXM_4-12" value="&lt;br&gt;&lt;br&gt;&lt;br&gt;&lt;br&gt;(END)" style="ellipse;html=1;shape=endState;fillColor=#000000;strokeColor=#ff0000;" parent="E8lBxkRK9DMBh62dXM_4-1" vertex="1">
                    <mxGeometry x="655" y="470" width="30" height="30" as="geometry"/>
                </mxCell>
                <mxCell id="E8lBxkRK9DMBh62dXM_4-13" value="&lt;br&gt;&amp;nbsp;Lock()&lt;br&gt;&amp;nbsp;[USER]" style="edgeStyle=orthogonalEdgeStyle;html=1;labelBackgroundColor=none;endArrow=open;endSize=8;strokeColor=#ff0000;fontFamily=Verdana;fontSize=12;align=left;entryX=0.5;entryY=0;exitX=0.5;exitY=1;exitDx=0;exitDy=0;entryDx=0;entryDy=0;" parent="E8lBxkRK9DMBh62dXM_4-1" source="E8lBxkRK9DMBh62dXM_4-5" target="E8lBxkRK9DMBh62dXM_4-7" edge="1">
                    <mxGeometry relative="1" as="geometry">
                        <mxPoint x="460" y="300" as="sourcePoint"/>
                        <mxPoint x="540" y="380" as="targetPoint"/>
                    </mxGeometry>
                </mxCell>
                <mxCell id="zpTPC1AMkzwIAFhAHAJZ-0" value="" style="points=[[0.145,0.145,0],[0.5,0,0],[0.855,0.145,0],[1,0.5,0],[0.855,0.855,0],[0.5,1,0],[0.145,0.855,0],[0,0.5,0]];shape=mxgraph.bpmn.event;html=1;verticalLabelPosition=bottom;labelBackgroundColor=#ffffff;verticalAlign=top;align=center;perimeter=ellipsePerimeter;outlineConnect=0;aspect=fixed;outline=end;symbol=error;" parent="E8lBxkRK9DMBh62dXM_4-1" vertex="1">
                    <mxGeometry x="400" y="100" width="30" height="30" as="geometry"/>
                </mxCell>
                <mxCell id="zpTPC1AMkzwIAFhAHAJZ-3" value="" style="points=[[0.145,0.145,0],[0.5,0,0],[0.855,0.145,0],[1,0.5,0],[0.855,0.855,0],[0.5,1,0],[0.145,0.855,0],[0,0.5,0]];shape=mxgraph.bpmn.event;html=1;verticalLabelPosition=bottom;labelBackgroundColor=#ffffff;verticalAlign=top;align=center;perimeter=ellipsePerimeter;outlineConnect=0;aspect=fixed;outline=end;symbol=error;" parent="E8lBxkRK9DMBh62dXM_4-1" vertex="1">
                    <mxGeometry x="400" y="250" width="30" height="30" as="geometry"/>
                </mxCell>
                <mxCell id="zpTPC1AMkzwIAFhAHAJZ-4" value="" style="points=[[0.145,0.145,0],[0.5,0,0],[0.855,0.145,0],[1,0.5,0],[0.855,0.855,0],[0.5,1,0],[0.145,0.855,0],[0,0.5,0]];shape=mxgraph.bpmn.event;html=1;verticalLabelPosition=bottom;labelBackgroundColor=#ffffff;verticalAlign=top;align=center;perimeter=ellipsePerimeter;outlineConnect=0;aspect=fixed;outline=end;symbol=error;" parent="E8lBxkRK9DMBh62dXM_4-1" vertex="1">
                    <mxGeometry x="400" y="390" width="30" height="30" as="geometry"/>
                </mxCell>
                <mxCell id="zpTPC1AMkzwIAFhAHAJZ-5" value="" style="points=[[0.145,0.145,0],[0.5,0,0],[0.855,0.145,0],[1,0.5,0],[0.855,0.855,0],[0.5,1,0],[0.145,0.855,0],[0,0.5,0]];shape=mxgraph.bpmn.event;html=1;verticalLabelPosition=bottom;labelBackgroundColor=#ffffff;verticalAlign=top;align=center;perimeter=ellipsePerimeter;outlineConnect=0;aspect=fixed;outline=end;symbol=error;" parent="E8lBxkRK9DMBh62dXM_4-1" vertex="1">
                    <mxGeometry x="680" y="330" width="30" height="30" as="geometry"/>
                </mxCell>
                <mxCell id="zpTPC1AMkzwIAFhAHAJZ-8" value="" style="points=[[0.145,0.145,0],[0.5,0,0],[0.855,0.145,0],[1,0.5,0],[0.855,0.855,0],[0.5,1,0],[0.145,0.855,0],[0,0.5,0]];shape=mxgraph.bpmn.event;html=1;verticalLabelPosition=bottom;labelBackgroundColor=#ffffff;verticalAlign=top;align=center;perimeter=ellipsePerimeter;outlineConnect=0;aspect=fixed;outline=end;symbol=error;" parent="E8lBxkRK9DMBh62dXM_4-1" vertex="1">
                    <mxGeometry x="430" y="30" width="30" height="30" as="geometry"/>
                </mxCell>
                <mxCell id="_0KVYvz3ht1j8HqEU500-2" value="&lt;div style=&quot;text-align: left&quot;&gt;ValidateEmail( )&lt;/div&gt;" style="html=1;verticalAlign=bottom;endArrow=open;dashed=1;endSize=8;exitX=1;exitY=0.5;exitDx=0;exitDy=0;" parent="E8lBxkRK9DMBh62dXM_4-1" source="E8lBxkRK9DMBh62dXM_4-3" edge="1">
                    <mxGeometry relative="1" as="geometry">
                        <mxPoint x="560" y="160" as="sourcePoint"/>
                        <mxPoint x="730" y="140" as="targetPoint"/>
                    </mxGeometry>
                </mxCell>
                <mxCell id="_0KVYvz3ht1j8HqEU500-3" value="&lt;div style=&quot;text-align: left&quot;&gt;CheckPassword( )&lt;/div&gt;&lt;div style=&quot;text-align: left&quot;&gt;ResetPassword( )&lt;/div&gt;" style="html=1;verticalAlign=bottom;endArrow=open;dashed=1;endSize=8;exitX=1;exitY=0.5;exitDx=0;exitDy=0;" parent="E8lBxkRK9DMBh62dXM_4-1" edge="1">
                    <mxGeometry relative="1" as="geometry">
                        <mxPoint x="430" y="270.0000000000002" as="sourcePoint"/>
                        <mxPoint x="740" y="270.0000000000002" as="targetPoint"/>
                    </mxGeometry>
                </mxCell>
                <mxCell id="_0KVYvz3ht1j8HqEU500-4" value="&lt;div style=&quot;text-align: left&quot;&gt;ResetPassword( )&lt;br&gt;&lt;/div&gt;" style="html=1;verticalAlign=bottom;endArrow=open;dashed=1;endSize=8;exitX=0.5;exitY=1;exitDx=0;exitDy=0;" parent="E8lBxkRK9DMBh62dXM_4-1" source="E8lBxkRK9DMBh62dXM_4-7" edge="1">
                    <mxGeometry relative="1" as="geometry">
                        <mxPoint x="280" y="570.0000000000002" as="sourcePoint"/>
                        <mxPoint x="730" y="570" as="targetPoint"/>
                        <Array as="points">
                            <mxPoint x="360" y="570"/>
                        </Array>
                    </mxGeometry>
                </mxCell>
            </root>
        </mxGraphModel>
    </diagram>
    <diagram name="ARTICLE2 - 1" id="NIOwmzkKGl1NM324XMFB">
        <mxGraphModel dx="1202" dy="1723" grid="1" gridSize="10" guides="1" tooltips="1" connect="1" arrows="1" fold="1" page="1" pageScale="1" pageWidth="1100" pageHeight="850" background="none" math="0" shadow="0">
            <root>
                <mxCell id="DGtuiSDRL9Hms_ADcDEB-0"/>
                <mxCell id="DGtuiSDRL9Hms_ADcDEB-1" parent="DGtuiSDRL9Hms_ADcDEB-0"/>
                <mxCell id="DGtuiSDRL9Hms_ADcDEB-2" value="&lt;br&gt;&lt;br&gt;&lt;br&gt;(START)" style="ellipse;html=1;shape=startState;fillColor=#000000;strokeColor=#ff0000;rounded=1;shadow=0;comic=0;labelBackgroundColor=none;fontFamily=Verdana;fontSize=12;fontColor=#000000;align=center;direction=south;" parent="DGtuiSDRL9Hms_ADcDEB-1" vertex="1">
                    <mxGeometry x="240" y="20" width="30" height="30" as="geometry"/>
                </mxCell>
                <mxCell id="DGtuiSDRL9Hms_ADcDEB-3" value="CREATED" style="rounded=1;whiteSpace=wrap;html=1;arcSize=24;fillColor=#ffffc0;strokeColor=#ff0000;shadow=0;comic=0;labelBackgroundColor=none;fontFamily=Verdana;fontSize=12;fontColor=#000000;align=center;" parent="DGtuiSDRL9Hms_ADcDEB-1" vertex="1">
                    <mxGeometry x="300" y="110" width="120" height="60" as="geometry"/>
                </mxCell>
                <mxCell id="DGtuiSDRL9Hms_ADcDEB-4" value="&lt;br&gt;SoftDelete()&lt;br&gt;[USER,STAFF]&lt;br&gt;." style="edgeStyle=orthogonalEdgeStyle;html=1;exitX=1;exitY=0.5;entryX=0.5;entryY=0;labelBackgroundColor=none;endArrow=open;endSize=8;strokeColor=#ff0000;fontFamily=Verdana;fontSize=12;align=left;entryDx=0;entryDy=0;exitDx=0;exitDy=0;" parent="DGtuiSDRL9Hms_ADcDEB-1" source="DGtuiSDRL9Hms_ADcDEB-5" target="DGtuiSDRL9Hms_ADcDEB-6" edge="1">
                    <mxGeometry relative="1" as="geometry"/>
                </mxCell>
                <mxCell id="DGtuiSDRL9Hms_ADcDEB-5" value="ACTIVATED" style="rounded=1;whiteSpace=wrap;html=1;arcSize=24;fillColor=#ffffc0;strokeColor=#ff0000;shadow=0;comic=0;labelBackgroundColor=none;fontFamily=Verdana;fontSize=12;fontColor=#000000;align=center;" parent="DGtuiSDRL9Hms_ADcDEB-1" vertex="1">
                    <mxGeometry x="300" y="260" width="120" height="60" as="geometry"/>
                </mxCell>
                <mxCell id="DGtuiSDRL9Hms_ADcDEB-6" value="ARCHIVED" style="rounded=1;whiteSpace=wrap;html=1;arcSize=24;fillColor=#ffffc0;strokeColor=#ff0000;shadow=0;comic=0;labelBackgroundColor=none;fontFamily=Verdana;fontSize=12;fontColor=#000000;align=center;" parent="DGtuiSDRL9Hms_ADcDEB-1" vertex="1">
                    <mxGeometry x="610" y="340" width="120" height="60" as="geometry"/>
                </mxCell>
                <mxCell id="DGtuiSDRL9Hms_ADcDEB-7" value="DEACTIVED" style="rounded=1;whiteSpace=wrap;html=1;arcSize=24;fillColor=#ffffc0;strokeColor=#ff0000;shadow=0;comic=0;labelBackgroundColor=none;fontFamily=Verdana;fontSize=12;fontColor=#000000;align=center;" parent="DGtuiSDRL9Hms_ADcDEB-1" vertex="1">
                    <mxGeometry x="300" y="400" width="120" height="60" as="geometry"/>
                </mxCell>
                <mxCell id="DGtuiSDRL9Hms_ADcDEB-8" value="&lt;br&gt;&amp;nbsp; Delete()&lt;br&gt;&amp;nbsp; [STAFF]" style="edgeStyle=elbowEdgeStyle;html=1;labelBackgroundColor=none;endArrow=open;endSize=8;strokeColor=#ff0000;fontFamily=Verdana;fontSize=12;align=left;entryX=0.5;entryY=0;entryDx=0;entryDy=0;exitX=0.5;exitY=1;exitDx=0;exitDy=0;" parent="DGtuiSDRL9Hms_ADcDEB-1" source="DGtuiSDRL9Hms_ADcDEB-6" target="DGtuiSDRL9Hms_ADcDEB-12" edge="1">
                    <mxGeometry relative="1" as="geometry">
                        <mxPoint x="860" y="490" as="sourcePoint"/>
                        <mxPoint x="830" y="630" as="targetPoint"/>
                        <Array as="points">
                            <mxPoint x="670" y="430"/>
                        </Array>
                    </mxGeometry>
                </mxCell>
                <mxCell id="DGtuiSDRL9Hms_ADcDEB-9" value="&lt;br&gt;&lt;br&gt;&lt;br&gt;&lt;br&gt;&amp;nbsp; &amp;nbsp;Register()&lt;br&gt;&amp;nbsp; &amp;nbsp;[USER]&lt;br&gt;&lt;br&gt;&amp;nbsp; &amp;nbsp;Import()&lt;br&gt;&amp;nbsp; &amp;nbsp;[USER]" style="edgeStyle=orthogonalEdgeStyle;html=1;labelBackgroundColor=none;endArrow=open;endSize=8;strokeColor=#ff0000;fontFamily=Verdana;fontSize=12;align=left;entryX=0.5;entryY=0;entryDx=0;entryDy=0;" parent="DGtuiSDRL9Hms_ADcDEB-1" source="DGtuiSDRL9Hms_ADcDEB-2" target="DGtuiSDRL9Hms_ADcDEB-3" edge="1">
                    <mxGeometry relative="1" as="geometry">
                        <mxPoint x="240" y="225" as="targetPoint"/>
                    </mxGeometry>
                </mxCell>
                <mxCell id="DGtuiSDRL9Hms_ADcDEB-10" value="&lt;br&gt;&amp;nbsp; Activate()&lt;br&gt;&amp;nbsp; [USER]" style="edgeStyle=orthogonalEdgeStyle;html=1;labelBackgroundColor=none;endArrow=open;endSize=8;strokeColor=#ff0000;fontFamily=Verdana;fontSize=12;align=left;entryX=0.5;entryY=0;exitX=0.5;exitY=1;exitDx=0;exitDy=0;entryDx=0;entryDy=0;" parent="DGtuiSDRL9Hms_ADcDEB-1" source="DGtuiSDRL9Hms_ADcDEB-3" target="DGtuiSDRL9Hms_ADcDEB-5" edge="1">
                    <mxGeometry relative="1" as="geometry"/>
                </mxCell>
                <mxCell id="DGtuiSDRL9Hms_ADcDEB-11" value="&amp;nbsp;UnLock()&lt;br&gt;&amp;nbsp;[USER,STAFF]" style="edgeStyle=orthogonalEdgeStyle;html=1;entryX=1;entryY=0.75;labelBackgroundColor=none;endArrow=open;endSize=8;strokeColor=#ff0000;fontFamily=Verdana;fontSize=12;align=left;" parent="DGtuiSDRL9Hms_ADcDEB-1" target="DGtuiSDRL9Hms_ADcDEB-5" edge="1">
                    <mxGeometry relative="1" as="geometry">
                        <mxPoint x="420" y="430" as="sourcePoint"/>
                        <Array as="points">
                            <mxPoint x="490" y="430"/>
                            <mxPoint x="490" y="305"/>
                        </Array>
                    </mxGeometry>
                </mxCell>
                <mxCell id="DGtuiSDRL9Hms_ADcDEB-12" value="&lt;br&gt;&lt;br&gt;&lt;br&gt;&lt;br&gt;(END)" style="ellipse;html=1;shape=endState;fillColor=#000000;strokeColor=#ff0000;" parent="DGtuiSDRL9Hms_ADcDEB-1" vertex="1">
                    <mxGeometry x="655" y="470" width="30" height="30" as="geometry"/>
                </mxCell>
                <mxCell id="DGtuiSDRL9Hms_ADcDEB-13" value="&lt;br&gt;&amp;nbsp;Lock()&lt;br&gt;&amp;nbsp;[USER]" style="edgeStyle=orthogonalEdgeStyle;html=1;labelBackgroundColor=none;endArrow=open;endSize=8;strokeColor=#ff0000;fontFamily=Verdana;fontSize=12;align=left;entryX=0.5;entryY=0;exitX=0.5;exitY=1;exitDx=0;exitDy=0;entryDx=0;entryDy=0;" parent="DGtuiSDRL9Hms_ADcDEB-1" source="DGtuiSDRL9Hms_ADcDEB-5" target="DGtuiSDRL9Hms_ADcDEB-7" edge="1">
                    <mxGeometry relative="1" as="geometry">
                        <mxPoint x="460" y="300" as="sourcePoint"/>
                        <mxPoint x="540" y="380" as="targetPoint"/>
                    </mxGeometry>
                </mxCell>
                <mxCell id="DGtuiSDRL9Hms_ADcDEB-14" value="" style="points=[[0.145,0.145,0],[0.5,0,0],[0.855,0.145,0],[1,0.5,0],[0.855,0.855,0],[0.5,1,0],[0.145,0.855,0],[0,0.5,0]];shape=mxgraph.bpmn.event;html=1;verticalLabelPosition=bottom;labelBackgroundColor=#ffffff;verticalAlign=top;align=center;perimeter=ellipsePerimeter;outlineConnect=0;aspect=fixed;outline=end;symbol=error;" parent="DGtuiSDRL9Hms_ADcDEB-1" vertex="1">
                    <mxGeometry x="400" y="100" width="30" height="30" as="geometry"/>
                </mxCell>
                <mxCell id="DGtuiSDRL9Hms_ADcDEB-15" value="" style="points=[[0.145,0.145,0],[0.5,0,0],[0.855,0.145,0],[1,0.5,0],[0.855,0.855,0],[0.5,1,0],[0.145,0.855,0],[0,0.5,0]];shape=mxgraph.bpmn.event;html=1;verticalLabelPosition=bottom;labelBackgroundColor=#ffffff;verticalAlign=top;align=center;perimeter=ellipsePerimeter;outlineConnect=0;aspect=fixed;outline=end;symbol=error;" parent="DGtuiSDRL9Hms_ADcDEB-1" vertex="1">
                    <mxGeometry x="400" y="250" width="30" height="30" as="geometry"/>
                </mxCell>
                <mxCell id="DGtuiSDRL9Hms_ADcDEB-16" value="" style="points=[[0.145,0.145,0],[0.5,0,0],[0.855,0.145,0],[1,0.5,0],[0.855,0.855,0],[0.5,1,0],[0.145,0.855,0],[0,0.5,0]];shape=mxgraph.bpmn.event;html=1;verticalLabelPosition=bottom;labelBackgroundColor=#ffffff;verticalAlign=top;align=center;perimeter=ellipsePerimeter;outlineConnect=0;aspect=fixed;outline=end;symbol=error;" parent="DGtuiSDRL9Hms_ADcDEB-1" vertex="1">
                    <mxGeometry x="400" y="390" width="30" height="30" as="geometry"/>
                </mxCell>
                <mxCell id="DGtuiSDRL9Hms_ADcDEB-17" value="" style="points=[[0.145,0.145,0],[0.5,0,0],[0.855,0.145,0],[1,0.5,0],[0.855,0.855,0],[0.5,1,0],[0.145,0.855,0],[0,0.5,0]];shape=mxgraph.bpmn.event;html=1;verticalLabelPosition=bottom;labelBackgroundColor=#ffffff;verticalAlign=top;align=center;perimeter=ellipsePerimeter;outlineConnect=0;aspect=fixed;outline=end;symbol=error;" parent="DGtuiSDRL9Hms_ADcDEB-1" vertex="1">
                    <mxGeometry x="680" y="330" width="30" height="30" as="geometry"/>
                </mxCell>
                <mxCell id="DGtuiSDRL9Hms_ADcDEB-18" value="" style="points=[[0.145,0.145,0],[0.5,0,0],[0.855,0.145,0],[1,0.5,0],[0.855,0.855,0],[0.5,1,0],[0.145,0.855,0],[0,0.5,0]];shape=mxgraph.bpmn.event;html=1;verticalLabelPosition=bottom;labelBackgroundColor=#ffffff;verticalAlign=top;align=center;perimeter=ellipsePerimeter;outlineConnect=0;aspect=fixed;outline=end;symbol=error;" parent="DGtuiSDRL9Hms_ADcDEB-1" vertex="1">
                    <mxGeometry x="430" y="30" width="30" height="30" as="geometry"/>
                </mxCell>
                <mxCell id="DGtuiSDRL9Hms_ADcDEB-19" value="&lt;div style=&quot;text-align: left&quot;&gt;ValidateEmail( )&lt;/div&gt;" style="html=1;verticalAlign=bottom;endArrow=open;dashed=1;endSize=8;exitX=1;exitY=0.5;exitDx=0;exitDy=0;" parent="DGtuiSDRL9Hms_ADcDEB-1" source="DGtuiSDRL9Hms_ADcDEB-3" edge="1">
                    <mxGeometry relative="1" as="geometry">
                        <mxPoint x="560" y="160" as="sourcePoint"/>
                        <mxPoint x="730" y="140" as="targetPoint"/>
                    </mxGeometry>
                </mxCell>
                <mxCell id="DGtuiSDRL9Hms_ADcDEB-20" value="&lt;div style=&quot;text-align: left&quot;&gt;CheckPassword( )&lt;/div&gt;&lt;div style=&quot;text-align: left&quot;&gt;ResetPassword( )&lt;/div&gt;" style="html=1;verticalAlign=bottom;endArrow=open;dashed=1;endSize=8;exitX=1;exitY=0.5;exitDx=0;exitDy=0;" parent="DGtuiSDRL9Hms_ADcDEB-1" edge="1">
                    <mxGeometry relative="1" as="geometry">
                        <mxPoint x="430" y="270.0000000000002" as="sourcePoint"/>
                        <mxPoint x="740" y="270.0000000000002" as="targetPoint"/>
                    </mxGeometry>
                </mxCell>
                <mxCell id="DGtuiSDRL9Hms_ADcDEB-21" value="&lt;div style=&quot;text-align: left&quot;&gt;ResetPassword( )&lt;br&gt;&lt;/div&gt;" style="html=1;verticalAlign=bottom;endArrow=open;dashed=1;endSize=8;exitX=0.5;exitY=1;exitDx=0;exitDy=0;" parent="DGtuiSDRL9Hms_ADcDEB-1" source="DGtuiSDRL9Hms_ADcDEB-7" edge="1">
                    <mxGeometry relative="1" as="geometry">
                        <mxPoint x="280" y="570.0000000000002" as="sourcePoint"/>
                        <mxPoint x="730" y="570" as="targetPoint"/>
                        <Array as="points">
                            <mxPoint x="360" y="570"/>
                        </Array>
                    </mxGeometry>
                </mxCell>
            </root>
        </mxGraphModel>
    </diagram>
    <diagram id="HhyEEAphA56mMJISIy88" name="Page-6">
        <mxGraphModel dx="1202" dy="873" grid="1" gridSize="10" guides="1" tooltips="1" connect="1" arrows="1" fold="1" page="1" pageScale="1" pageWidth="850" pageHeight="1100" math="0" shadow="0">
            <root>
                <mxCell id="gqUs-QoLM5nB0i256_Ck-0"/>
                <mxCell id="gqUs-QoLM5nB0i256_Ck-1" parent="gqUs-QoLM5nB0i256_Ck-0"/>
                <mxCell id="gqUs-QoLM5nB0i256_Ck-12" style="edgeStyle=orthogonalEdgeStyle;rounded=0;orthogonalLoop=1;jettySize=auto;html=1;exitX=0.5;exitY=1;exitDx=0;exitDy=0;" parent="gqUs-QoLM5nB0i256_Ck-1" source="gqUs-QoLM5nB0i256_Ck-2" edge="1">
                    <mxGeometry relative="1" as="geometry">
                        <mxPoint x="400" y="610" as="targetPoint"/>
                    </mxGeometry>
                </mxCell>
                <mxCell id="gqUs-QoLM5nB0i256_Ck-2" value="Member WebAPI" style="label;whiteSpace=wrap;html=1;align=center;verticalAlign=bottom;spacingLeft=0;spacingBottom=4;imageAlign=center;imageVerticalAlign=top;image=img/clipart/Gear_128x128.png" parent="gqUs-QoLM5nB0i256_Ck-1" vertex="1">
                    <mxGeometry x="340" y="470" width="120" height="80" as="geometry"/>
                </mxCell>
                <mxCell id="gqUs-QoLM5nB0i256_Ck-9" style="edgeStyle=orthogonalEdgeStyle;rounded=0;orthogonalLoop=1;jettySize=auto;html=1;exitX=1;exitY=0.5;exitDx=0;exitDy=0;entryX=0.25;entryY=0;entryDx=0;entryDy=0;" parent="gqUs-QoLM5nB0i256_Ck-1" source="gqUs-QoLM5nB0i256_Ck-3" target="gqUs-QoLM5nB0i256_Ck-2" edge="1">
                    <mxGeometry relative="1" as="geometry"/>
                </mxCell>
                <mxCell id="gqUs-QoLM5nB0i256_Ck-3" value="Web Site / BFF" style="shape=image;html=1;verticalAlign=top;verticalLabelPosition=bottom;labelBackgroundColor=#ffffff;imageAspect=0;aspect=fixed;image=https://cdn1.iconfinder.com/data/icons/Futurosoft%20Icons%200.5.2/128x128/filesystems/www.png;fontStyle=1" parent="gqUs-QoLM5nB0i256_Ck-1" vertex="1">
                    <mxGeometry x="110" y="261" width="128" height="128" as="geometry"/>
                </mxCell>
                <mxCell id="gqUs-QoLM5nB0i256_Ck-10" style="edgeStyle=orthogonalEdgeStyle;rounded=0;orthogonalLoop=1;jettySize=auto;html=1;exitX=0;exitY=0.5;exitDx=0;exitDy=0;exitPerimeter=0;" parent="gqUs-QoLM5nB0i256_Ck-1" source="gqUs-QoLM5nB0i256_Ck-4" target="gqUs-QoLM5nB0i256_Ck-2" edge="1">
                    <mxGeometry relative="1" as="geometry"/>
                </mxCell>
                <mxCell id="gqUs-QoLM5nB0i256_Ck-4" value="&lt;b&gt;Admin Console&lt;/b&gt;" style="pointerEvents=1;shadow=0;dashed=0;html=1;strokeColor=none;labelPosition=center;verticalLabelPosition=bottom;verticalAlign=top;align=center;fillColor=#515151;shape=mxgraph.mscae.system_center.admin_console" parent="gqUs-QoLM5nB0i256_Ck-1" vertex="1">
                    <mxGeometry x="580" y="280" width="120" height="90" as="geometry"/>
                </mxCell>
                <mxCell id="gqUs-QoLM5nB0i256_Ck-11" style="edgeStyle=orthogonalEdgeStyle;rounded=0;orthogonalLoop=1;jettySize=auto;html=1;exitX=0;exitY=0.25;exitDx=0;exitDy=0;entryX=0.75;entryY=0;entryDx=0;entryDy=0;" parent="gqUs-QoLM5nB0i256_Ck-1" source="gqUs-QoLM5nB0i256_Ck-5" target="gqUs-QoLM5nB0i256_Ck-2" edge="1">
                    <mxGeometry relative="1" as="geometry"/>
                </mxCell>
                <mxCell id="gqUs-QoLM5nB0i256_Ck-5" value="Batch Job&lt;br&gt;CLI, Tools, Util" style="html=1;whiteSpace=wrap;container=1;recursiveResize=0;collapsible=0;fontStyle=1" parent="gqUs-QoLM5nB0i256_Ck-1" vertex="1">
                    <mxGeometry x="580" y="424" width="160" height="70" as="geometry"/>
                </mxCell>
                <mxCell id="gqUs-QoLM5nB0i256_Ck-6" value="" style="triangle;html=1;whiteSpace=wrap;" parent="gqUs-QoLM5nB0i256_Ck-5" vertex="1">
                    <mxGeometry x="20" y="20" width="20" height="30" as="geometry"/>
                </mxCell>
                <mxCell id="gqUs-QoLM5nB0i256_Ck-13" value="" style="edgeStyle=orthogonalEdgeStyle;rounded=0;orthogonalLoop=1;jettySize=auto;html=1;exitX=0.5;exitY=1;exitDx=0;exitDy=0;" parent="gqUs-QoLM5nB0i256_Ck-1" source="gqUs-QoLM5nB0i256_Ck-15" target="gqUs-QoLM5nB0i256_Ck-8" edge="1">
                    <mxGeometry relative="1" as="geometry">
                        <mxPoint x="400" y="720" as="sourcePoint"/>
                    </mxGeometry>
                </mxCell>
                <mxCell id="gqUs-QoLM5nB0i256_Ck-8" value="Database" style="shape=cylinder3;whiteSpace=wrap;html=1;boundedLbl=1;backgroundOutline=1;size=15;fontStyle=1" parent="gqUs-QoLM5nB0i256_Ck-1" vertex="1">
                    <mxGeometry x="350" y="730" width="100" height="70" as="geometry"/>
                </mxCell>
                <mxCell id="gqUs-QoLM5nB0i256_Ck-15" value="Member Service" style="rounded=1;whiteSpace=wrap;html=1;fontStyle=1" parent="gqUs-QoLM5nB0i256_Ck-1" vertex="1">
                    <mxGeometry x="340" y="610" width="120" height="70" as="geometry"/>
                </mxCell>
                <mxCell id="gqUs-QoLM5nB0i256_Ck-17" value="" style="endArrow=none;dashed=1;html=1;dashPattern=1 3;strokeWidth=2;" parent="gqUs-QoLM5nB0i256_Ck-1" edge="1">
                    <mxGeometry width="50" height="50" relative="1" as="geometry">
                        <mxPoint x="310" y="829" as="sourcePoint"/>
                        <mxPoint x="310" y="453" as="targetPoint"/>
                    </mxGeometry>
                </mxCell>
                <mxCell id="gqUs-QoLM5nB0i256_Ck-18" value="" style="endArrow=none;dashed=1;html=1;dashPattern=1 3;strokeWidth=2;" parent="gqUs-QoLM5nB0i256_Ck-1" edge="1">
                    <mxGeometry width="50" height="50" relative="1" as="geometry">
                        <mxPoint x="500" y="829" as="sourcePoint"/>
                        <mxPoint x="500" y="453" as="targetPoint"/>
                    </mxGeometry>
                </mxCell>
                <mxCell id="gqUs-QoLM5nB0i256_Ck-19" value="" style="endArrow=none;dashed=1;html=1;dashPattern=1 3;strokeWidth=2;" parent="gqUs-QoLM5nB0i256_Ck-1" edge="1">
                    <mxGeometry width="50" height="50" relative="1" as="geometry">
                        <mxPoint x="310" y="453" as="sourcePoint"/>
                        <mxPoint x="500" y="453" as="targetPoint"/>
                    </mxGeometry>
                </mxCell>
                <mxCell id="gqUs-QoLM5nB0i256_Ck-20" value="" style="endArrow=none;dashed=1;html=1;dashPattern=1 3;strokeWidth=2;" parent="gqUs-QoLM5nB0i256_Ck-1" edge="1">
                    <mxGeometry width="50" height="50" relative="1" as="geometry">
                        <mxPoint x="310" y="829" as="sourcePoint"/>
                        <mxPoint x="500" y="829" as="targetPoint"/>
                    </mxGeometry>
                </mxCell>
            </root>
        </mxGraphModel>
    </diagram>
    <diagram id="uzNcmQ-ChrGakB3YbDpF" name="Page-7">
        <mxGraphModel dx="994" dy="602" grid="1" gridSize="10" guides="1" tooltips="1" connect="1" arrows="1" fold="1" page="1" pageScale="1" pageWidth="1100" pageHeight="850" math="0" shadow="0">
            <root>
                <mxCell id="RPx3eWSFsvpAW4Ff1Rmd-0"/>
                <mxCell id="RPx3eWSFsvpAW4Ff1Rmd-1" parent="RPx3eWSFsvpAW4Ff1Rmd-0"/>
                <mxCell id="RPx3eWSFsvpAW4Ff1Rmd-8" value="USER: Brian (Browser)" style="shape=umlLifeline;perimeter=lifelinePerimeter;whiteSpace=wrap;html=1;container=1;collapsible=0;recursiveResize=0;outlineConnect=0;fontColor=#808080;strokeColor=#808080;" vertex="1" parent="RPx3eWSFsvpAW4Ff1Rmd-1">
                    <mxGeometry x="80" y="80" width="100" height="480" as="geometry"/>
                </mxCell>
                <mxCell id="RPx3eWSFsvpAW4Ff1Rmd-13" value="註冊帳號，取得驗證碼" style="html=1;verticalAlign=bottom;endArrow=block;fontColor=#808080;" edge="1" parent="RPx3eWSFsvpAW4Ff1Rmd-8" target="RPx3eWSFsvpAW4Ff1Rmd-9">
                    <mxGeometry width="80" relative="1" as="geometry">
                        <mxPoint x="50" y="80" as="sourcePoint"/>
                        <mxPoint x="130" y="80" as="targetPoint"/>
                    </mxGeometry>
                </mxCell>
                <mxCell id="RPx3eWSFsvpAW4Ff1Rmd-15" value="嘗試登入失敗 #1 (未通過驗證)" style="html=1;verticalAlign=bottom;endArrow=block;fontColor=#808080;" edge="1" parent="RPx3eWSFsvpAW4Ff1Rmd-8" target="RPx3eWSFsvpAW4Ff1Rmd-9">
                    <mxGeometry width="80" relative="1" as="geometry">
                        <mxPoint x="50" y="130" as="sourcePoint"/>
                        <mxPoint x="130" y="130" as="targetPoint"/>
                    </mxGeometry>
                </mxCell>
                <mxCell id="RPx3eWSFsvpAW4Ff1Rmd-9" value="Web Site" style="shape=umlLifeline;perimeter=lifelinePerimeter;whiteSpace=wrap;html=1;container=1;collapsible=0;recursiveResize=0;outlineConnect=0;fontColor=#808080;strokeColor=#808080;" vertex="1" parent="RPx3eWSFsvpAW4Ff1Rmd-1">
                    <mxGeometry x="260" y="80" width="100" height="480" as="geometry"/>
                </mxCell>
                <mxCell id="RPx3eWSFsvpAW4Ff1Rmd-17" value="嘗試登入失敗 #3" style="html=1;verticalAlign=bottom;endArrow=block;fontColor=#808080;" edge="1" parent="RPx3eWSFsvpAW4Ff1Rmd-9">
                    <mxGeometry width="80" relative="1" as="geometry">
                        <mxPoint x="-130" y="273.9999999999999" as="sourcePoint"/>
                        <mxPoint x="49.5" y="273.9999999999999" as="targetPoint"/>
                    </mxGeometry>
                </mxCell>
                <mxCell id="RPx3eWSFsvpAW4Ff1Rmd-20" value="修改密碼" style="html=1;verticalAlign=bottom;endArrow=block;fontColor=#808080;" edge="1" parent="RPx3eWSFsvpAW4Ff1Rmd-9">
                    <mxGeometry width="80" relative="1" as="geometry">
                        <mxPoint x="-130" y="373.9999999999999" as="sourcePoint"/>
                        <mxPoint x="49.5" y="373.9999999999999" as="targetPoint"/>
                    </mxGeometry>
                </mxCell>
                <mxCell id="RPx3eWSFsvpAW4Ff1Rmd-25" value="(web) Register()" style="html=1;verticalAlign=bottom;startArrow=oval;startFill=1;endArrow=block;startSize=8;fontColor=#808080;" edge="1" parent="RPx3eWSFsvpAW4Ff1Rmd-9" target="RPx3eWSFsvpAW4Ff1Rmd-10">
                    <mxGeometry width="60" relative="1" as="geometry">
                        <mxPoint x="50" y="90" as="sourcePoint"/>
                        <mxPoint x="110" y="90" as="targetPoint"/>
                    </mxGeometry>
                </mxCell>
                <mxCell id="RPx3eWSFsvpAW4Ff1Rmd-26" value="(web) CheckPassword()" style="html=1;verticalAlign=bottom;startArrow=oval;startFill=1;endArrow=block;startSize=8;fontColor=#808080;" edge="1" parent="RPx3eWSFsvpAW4Ff1Rmd-9">
                    <mxGeometry width="60" relative="1" as="geometry">
                        <mxPoint x="50" y="139.9999999999999" as="sourcePoint"/>
                        <mxPoint x="229.5" y="139.9999999999999" as="targetPoint"/>
                    </mxGeometry>
                </mxCell>
                <mxCell id="RPx3eWSFsvpAW4Ff1Rmd-10" value="Member Service" style="shape=umlLifeline;perimeter=lifelinePerimeter;whiteSpace=wrap;html=1;container=1;collapsible=0;recursiveResize=0;outlineConnect=0;fontColor=#808080;strokeColor=#808080;" vertex="1" parent="RPx3eWSFsvpAW4Ff1Rmd-1">
                    <mxGeometry x="440" y="80" width="100" height="480" as="geometry"/>
                </mxCell>
                <mxCell id="RPx3eWSFsvpAW4Ff1Rmd-11" value="Backoffice" style="shape=umlLifeline;perimeter=lifelinePerimeter;whiteSpace=wrap;html=1;container=1;collapsible=0;recursiveResize=0;outlineConnect=0;fontColor=#808080;strokeColor=#808080;" vertex="1" parent="RPx3eWSFsvpAW4Ff1Rmd-1">
                    <mxGeometry x="620" y="80" width="100" height="480" as="geometry"/>
                </mxCell>
                <mxCell id="RPx3eWSFsvpAW4Ff1Rmd-12" value="Staff (Browser)" style="shape=umlLifeline;perimeter=lifelinePerimeter;whiteSpace=wrap;html=1;container=1;collapsible=0;recursiveResize=0;outlineConnect=0;fontColor=#808080;strokeColor=#808080;" vertex="1" parent="RPx3eWSFsvpAW4Ff1Rmd-1">
                    <mxGeometry x="800" y="80" width="100" height="480" as="geometry"/>
                </mxCell>
                <mxCell id="RPx3eWSFsvpAW4Ff1Rmd-21" value="鎖定帳號&lt;br&gt;(客服認為 Brian 是違規使用者)" style="html=1;verticalAlign=bottom;endArrow=block;fontColor=#808080;" edge="1" parent="RPx3eWSFsvpAW4Ff1Rmd-12">
                    <mxGeometry width="80" relative="1" as="geometry">
                        <mxPoint x="50" y="334" as="sourcePoint"/>
                        <mxPoint x="-130.18965517241395" y="333.9999999999999" as="targetPoint"/>
                    </mxGeometry>
                </mxCell>
                <mxCell id="RPx3eWSFsvpAW4Ff1Rmd-16" value="嘗試登入失敗 #2" style="html=1;verticalAlign=bottom;endArrow=block;fontColor=#808080;" edge="1" parent="RPx3eWSFsvpAW4Ff1Rmd-1">
                    <mxGeometry width="80" relative="1" as="geometry">
                        <mxPoint x="130" y="323.9999999999999" as="sourcePoint"/>
                        <mxPoint x="309.5" y="323.9999999999999" as="targetPoint"/>
                    </mxGeometry>
                </mxCell>
                <mxCell id="RPx3eWSFsvpAW4Ff1Rmd-18" value="聯絡客服人員，取得新的驗證碼" style="html=1;verticalAlign=bottom;endArrow=open;dashed=1;endSize=8;fontColor=#808080;" edge="1" parent="RPx3eWSFsvpAW4Ff1Rmd-1">
                    <mxGeometry relative="1" as="geometry">
                        <mxPoint x="129.81034482758605" y="381.9999999999999" as="sourcePoint"/>
                        <mxPoint x="849.5" y="381.9999999999999" as="targetPoint"/>
                        <Array as="points">
                            <mxPoint x="550" y="382"/>
                        </Array>
                    </mxGeometry>
                </mxCell>
                <mxCell id="RPx3eWSFsvpAW4Ff1Rmd-19" value="用驗證碼，重設密碼" style="html=1;verticalAlign=bottom;endArrow=block;fontColor=#808080;" edge="1" parent="RPx3eWSFsvpAW4Ff1Rmd-1">
                    <mxGeometry width="80" relative="1" as="geometry">
                        <mxPoint x="130" y="423.9999999999999" as="sourcePoint"/>
                        <mxPoint x="309.5" y="423.9999999999999" as="targetPoint"/>
                    </mxGeometry>
                </mxCell>
                <mxCell id="RPx3eWSFsvpAW4Ff1Rmd-22" value="嘗試登入失敗 #3" style="html=1;verticalAlign=bottom;endArrow=block;fontColor=#808080;" edge="1" parent="RPx3eWSFsvpAW4Ff1Rmd-1">
                    <mxGeometry width="80" relative="1" as="geometry">
                        <mxPoint x="130" y="553.9999999999999" as="sourcePoint"/>
                        <mxPoint x="309.5" y="553.9999999999999" as="targetPoint"/>
                    </mxGeometry>
                </mxCell>
                <mxCell id="RPx3eWSFsvpAW4Ff1Rmd-23" value="嘗試登入失敗 #3" style="html=1;verticalAlign=bottom;endArrow=block;fontColor=#808080;" edge="1" parent="RPx3eWSFsvpAW4Ff1Rmd-1">
                    <mxGeometry width="80" relative="1" as="geometry">
                        <mxPoint x="130" y="584" as="sourcePoint"/>
                        <mxPoint x="309.5" y="584" as="targetPoint"/>
                    </mxGeometry>
                </mxCell>
                <mxCell id="RPx3eWSFsvpAW4Ff1Rmd-24" value="嘗試登入失敗 #3" style="html=1;verticalAlign=bottom;endArrow=block;fontColor=#808080;" edge="1" parent="RPx3eWSFsvpAW4Ff1Rmd-1">
                    <mxGeometry width="80" relative="1" as="geometry">
                        <mxPoint x="130" y="614" as="sourcePoint"/>
                        <mxPoint x="309.5" y="614" as="targetPoint"/>
                    </mxGeometry>
                </mxCell>
                <mxCell id="RPx3eWSFsvpAW4Ff1Rmd-28" value="驗證，重新登入" style="html=1;verticalAlign=bottom;endArrow=block;fontColor=#808080;" edge="1" parent="RPx3eWSFsvpAW4Ff1Rmd-1">
                    <mxGeometry width="80" relative="1" as="geometry">
                        <mxPoint x="131" y="239.9999999999999" as="sourcePoint"/>
                        <mxPoint x="310.5" y="239.9999999999999" as="targetPoint"/>
                    </mxGeometry>
                </mxCell>
                <mxCell id="RPx3eWSFsvpAW4Ff1Rmd-29" value="(web) Activate( )" style="html=1;verticalAlign=bottom;startArrow=oval;startFill=1;endArrow=block;startSize=8;fontColor=#808080;" edge="1" parent="RPx3eWSFsvpAW4Ff1Rmd-1">
                    <mxGeometry width="60" relative="1" as="geometry">
                        <mxPoint x="310" y="245.9999999999999" as="sourcePoint"/>
                        <mxPoint x="489.5" y="245.9999999999999" as="targetPoint"/>
                    </mxGeometry>
                </mxCell>
                <mxCell id="RPx3eWSFsvpAW4Ff1Rmd-30" value="(web) GetMember( )" style="html=1;verticalAlign=bottom;startArrow=oval;startFill=1;endArrow=block;startSize=8;fontColor=#808080;" edge="1" parent="RPx3eWSFsvpAW4Ff1Rmd-1">
                    <mxGeometry width="60" relative="1" as="geometry">
                        <mxPoint x="310" y="264" as="sourcePoint"/>
                        <mxPoint x="489.5" y="264" as="targetPoint"/>
                    </mxGeometry>
                </mxCell>
                <mxCell id="RPx3eWSFsvpAW4Ff1Rmd-31" value="(web) CheckPassword( )" style="html=1;verticalAlign=bottom;startArrow=oval;startFill=1;endArrow=block;startSize=8;fontColor=#808080;" edge="1" parent="RPx3eWSFsvpAW4Ff1Rmd-1">
                    <mxGeometry width="60" relative="1" as="geometry">
                        <mxPoint x="310" y="283.0000000000001" as="sourcePoint"/>
                        <mxPoint x="489.5" y="283.0000000000001" as="targetPoint"/>
                    </mxGeometry>
                </mxCell>
                <mxCell id="RPx3eWSFsvpAW4Ff1Rmd-32" value="嘗試登入失敗 #2" style="html=1;verticalAlign=bottom;endArrow=block;fontColor=#808080;" edge="1" parent="RPx3eWSFsvpAW4Ff1Rmd-1">
                    <mxGeometry width="80" relative="1" as="geometry">
                        <mxPoint x="130" y="301.9999999999999" as="sourcePoint"/>
                        <mxPoint x="309.5" y="301.9999999999999" as="targetPoint"/>
                    </mxGeometry>
                </mxCell>
            </root>
        </mxGraphModel>
    </diagram>
</mxfile>